HIERARCHY
ROOT Hips
{
  OFFSET 150.432 88.1888 27.0678
  CHANNELS 6 Xposition Yposition Zposition Zrotation Xrotation Yrotation
  JOINT RightUpLeg
  {
    OFFSET -9.25679 -1.50405 0.000749919
    CHANNELS 3 Zrotation Xrotation Yrotation
    JOINT RightLeg
    {
      OFFSET 0.0460649 -41.9017 0.109432
      CHANNELS 3 Zrotation Xrotation Yrotation
      JOINT RightFoot
      {
        OFFSET 1.7988 -41.6468 0.413135
        CHANNELS 3 Zrotation Xrotation Yrotation
        End Site
        {
          OFFSET 0 -7.69 17.5
        }
      }
    }
  }
  JOINT LeftUpLeg
  {
    OFFSET 9.37007 -1.70178 -0.0772456
    CHANNELS 3 Zrotation Xrotation Yrotation
    JOINT LeftLeg
    {
      OFFSET 0.225295 -41.8622 -0.102498
      CHANNELS 3 Zrotation Xrotation Yrotation
      JOINT LeftFoot
      {
        OFFSET -2.07126 -41.2817 -1.22305
        CHANNELS 3 Zrotation Xrotation Yrotation
        End Site
        {
          OFFSET 0 -7.69 17.5
        }
      }
    }
  }
  JOINT Spine
  {
    OFFSET 0.0614897 14.2979 0.0172263
    CHANNELS 3 Zrotation Xrotation Yrotation
    JOINT Spine1
    {
      OFFSET 0.0253415 9.71429 0.00919728
      CHANNELS 3 Zrotation Xrotation Yrotation
      JOINT Spine2
      {
        OFFSET -0.0163533 10.1275 0.00641818
        CHANNELS 3 Zrotation Xrotation Yrotation
        JOINT Spine3
        {
          OFFSET 0.00964153 9.71178 0.018187
          CHANNELS 3 Zrotation Xrotation Yrotation
          JOINT Neck
          {
            OFFSET -0.0402277 10.3749 0.0917408
            CHANNELS 3 Zrotation Xrotation Yrotation
            JOINT Head
            {
              OFFSET 0.0121048 9.49481 0.108971
              CHANNELS 3 Zrotation Xrotation Yrotation
              End Site
              {
                OFFSET 0 15.95 0
              }
            }
          }
          JOINT RightShoulder
          {
            OFFSET -3.18208 6.946 0.015457
            CHANNELS 3 Zrotation Xrotation Yrotation
            JOINT RightArm
            {
              OFFSET -12.7708 0.0386499 -0.00729584
              CHANNELS 3 Zrotation Xrotation Yrotation
              JOINT RightForeArm
              {
                OFFSET -26.422 0.00272702 0.0331834
                CHANNELS 3 Zrotation Xrotation Yrotation
                JOINT RightHand
                {
                  OFFSET -25.9963 -0.0318335 0.00677283
                  CHANNELS 3 Zrotation Xrotation Yrotation
                  JOINT RightHandThumb1
                  {
                    OFFSET -2.48905 0.190105 3.12053
                    CHANNELS 3 Zrotation Xrotation Yrotation
                    JOINT RightHandThumb2
                    {
                      OFFSET -3.68274 0 0
                      CHANNELS 3 Zrotation Xrotation Yrotation
                      JOINT RightHandThumb3
                      {
                        OFFSET -2.55832 0 0
                        CHANNELS 3 Zrotation Xrotation Yrotation
                        End Site
                        {
                          OFFSET -2.194 0 0
                        }
                      }
                    }
                  }
                  JOINT RightInHandIndex
                  {
                    OFFSET -3.22368 0.508421 1.97842
                    CHANNELS 3 Zrotation Xrotation Yrotation
                    JOINT RightHandIndex1
                    {
                      OFFSET -5.21684 -0.091368 0.999158
                      CHANNELS 3 Zrotation Xrotation Yrotation
                      JOINT RightHandIndex2
                      {
                        OFFSET -3.61937 0 0
                        CHANNELS 3 Zrotation Xrotation Yrotation
                        JOINT RightHandIndex3
                        {
                          OFFSET -2.0521 0 0
                          CHANNELS 3 Zrotation Xrotation Yrotation
                          End Site
                          {
                            OFFSET -1.805 0 0
                          }
                        }
                      }
                    }
                  }
                  JOINT RightInHandMiddle
                  {
                    OFFSET -3.38211 0.517263 0.756737
                    CHANNELS 3 Zrotation Xrotation Yrotation
                    JOINT RightHandMiddle1
                    {
                      OFFSET -5.17411 -0.084 0.313895
                      CHANNELS 3 Zrotation Xrotation Yrotation
                      JOINT RightHandMiddle2
                      {
                        OFFSET -3.94947 0 0
                        CHANNELS 3 Zrotation Xrotation Yrotation
                        JOINT RightHandMiddle3
                        {
                          OFFSET -2.47579 0 0
                          CHANNELS 3 Zrotation Xrotation Yrotation
                          End Site
                          {
                            OFFSET -1.975 0 0
                          }
                        }
                      }
                    }
                  }
                  JOINT RightInHandRing
                  {
                    OFFSET -3.36516 0.537895 -0.128947
                    CHANNELS 3 Zrotation Xrotation Yrotation
                    JOINT RightHandRing1
                    {
                      OFFSET -4.63474 -0.022105 -0.478947
                      CHANNELS 3 Zrotation Xrotation Yrotation
                      JOINT RightHandRing2
                      {
                        OFFSET -3.44238 0 0
                        CHANNELS 3 Zrotation Xrotation Yrotation
                        JOINT RightHandRing3
                        {
                          OFFSET -2.3881 0 0
                          CHANNELS 3 Zrotation Xrotation Yrotation
                          End Site
                          {
                            OFFSET -1.857 0 0
                          }
                        }
                      }
                    }
                  }
                  JOINT RightInHandPinky
                  {
                    OFFSET -3.16105 0.469368 -1.20179
                    CHANNELS 3 Zrotation Xrotation Yrotation
                    JOINT RightHandPinky1
                    {
                      OFFSET -4.14105 -0.022105 -1.09053
                      CHANNELS 3 Zrotation Xrotation Yrotation
                      JOINT RightHandPinky2
                      {
                        OFFSET -2.75653 0 0
                        CHANNELS 3 Zrotation Xrotation Yrotation
                        JOINT RightHandPinky3
                        {
                          OFFSET -1.74189 0 0
                          CHANNELS 3 Zrotation Xrotation Yrotation
                          End Site
                          {
                            OFFSET -1.645 0 0
                          }
                        }
                      }
                    }
                  }
                }
              }
            }
          }
          JOINT LeftShoulder
          {
            OFFSET 3.18966 6.92856 0.062398
            CHANNELS 3 Zrotation Xrotation Yrotation
            JOINT LeftArm
            {
              OFFSET 12.7601 -0.0509086 0.00275124
              CHANNELS 3 Zrotation Xrotation Yrotation
              JOINT LeftForeArm
              {
                OFFSET 26.4828 -0.0571091 -0.0285564
                CHANNELS 3 Zrotation Xrotation Yrotation
                JOINT LeftHand
                {
                  OFFSET 25.9994 -0.0171136 -0.0547064
                  CHANNELS 3 Zrotation Xrotation Yrotation
                  JOINT LeftHandThumb1
                  {
                    OFFSET 2.48905 0.190105 3.12053
                    CHANNELS 3 Zrotation Xrotation Yrotation
                    JOINT LeftHandThumb2
                    {
                      OFFSET 3.68274 0 0
                      CHANNELS 3 Zrotation Xrotation Yrotation
                      JOINT LeftHandThumb3
                      {
                        OFFSET 2.55832 0 0
                        CHANNELS 3 Zrotation Xrotation Yrotation
                        End Site
                        {
                          OFFSET 2.194 0 0
                        }
                      }
                    }
                  }
                  JOINT LeftInHandIndex
                  {
                    OFFSET 3.22368 0.508421 1.97842
                    CHANNELS 3 Zrotation Xrotation Yrotation
                    JOINT LeftHandIndex1
                    {
                      OFFSET 5.21684 -0.091368 0.999158
                      CHANNELS 3 Zrotation Xrotation Yrotation
                      JOINT LeftHandIndex2
                      {
                        OFFSET 3.61937 0 0
                        CHANNELS 3 Zrotation Xrotation Yrotation
                        JOINT LeftHandIndex3
                        {
                          OFFSET 2.0521 0 0
                          CHANNELS 3 Zrotation Xrotation Yrotation
                          End Site
                          {
                            OFFSET 1.805 0 0
                          }
                        }
                      }
                    }
                  }
                  JOINT LeftInHandMiddle
                  {
                    OFFSET 3.38211 0.517263 0.756737
                    CHANNELS 3 Zrotation Xrotation Yrotation
                    JOINT LeftHandMiddle1
                    {
                      OFFSET 5.17411 -0.084 0.313895
                      CHANNELS 3 Zrotation Xrotation Yrotation
                      JOINT LeftHandMiddle2
                      {
                        OFFSET 3.94947 0 0
                        CHANNELS 3 Zrotation Xrotation Yrotation
                        JOINT LeftHandMiddle3
                        {
                          OFFSET 2.47579 0 0
                          CHANNELS 3 Zrotation Xrotation Yrotation
                          End Site
                          {
                            OFFSET 1.975 0 0
                          }
                        }
                      }
                    }
                  }
                  JOINT LeftInHandRing
                  {
                    OFFSET 3.36516 0.537895 -0.128947
                    CHANNELS 3 Zrotation Xrotation Yrotation
                    JOINT LeftHandRing1
                    {
                      OFFSET 4.63474 -0.022105 -0.478947
                      CHANNELS 3 Zrotation Xrotation Yrotation
                      JOINT LeftHandRing2
                      {
                        OFFSET 3.44238 0 0
                        CHANNELS 3 Zrotation Xrotation Yrotation
                        JOINT LeftHandRing3
                        {
                          OFFSET 2.3881 0 0
                          CHANNELS 3 Zrotation Xrotation Yrotation
                          End Site
                          {
                            OFFSET 1.857 0 0
                          }
                        }
                      }
                    }
                  }
                  JOINT LeftInHandPinky
                  {
                    OFFSET 3.16105 0.469368 -1.20179
                    CHANNELS 3 Zrotation Xrotation Yrotation
                    JOINT LeftHandPinky1
                    {
                      OFFSET 4.14105 -0.022105 -1.09053
                      CHANNELS 3 Zrotation Xrotation Yrotation
                      JOINT LeftHandPinky2
                      {
                        OFFSET 2.75653 0 0
                        CHANNELS 3 Zrotation Xrotation Yrotation
                        JOINT LeftHandPinky3
                        {
                          OFFSET 1.74189 0 0
                          CHANNELS 3 Zrotation Xrotation Yrotation
                          End Site
                          {
                            OFFSET 1.645 0 0
                          }
                        }
                      }
                    }
                  }
                }
              }
            }
          }
        }
      }
    }
  }
}
MOTION
Frames: 3
Frame Time: 0.00833333
2.998810043445338351e+02 1.384014352232050896e-02 -3.609003156549728253e-02 -2.981236549982759637e-02 -3.732288693499929630e-03 1.492567603227100137e-01 -1.647224671518990602e-01 4.877612878235089433e-02 2.071278446528830586e-02 5.844001035475371308e-02 2.585514601893959714e-03 -1.189693589535734258e-01 -4.402351718010616768e-03 -2.214038289251537422e-02 -1.377320367972258153e-01 -2.346111069593172782e-01 -1.311083915723623428e-01 -1.539864318705854163e-01 1.741792491126248621e-01 -6.476205662398651364e-02 -8.864115495429987501e-02 -1.453618897478078237e-02 3.416552548772867903e-02 1.230423591835454189e-02 1.332021547980412612e-01 -1.333159952535391823e-01 -9.679545516228470481e-01 3.950780101824333257e-02 -1.476061625433662539e-01 -2.440682319818064105e-01 5.508416935039646412e-02 -1.224378816084261135e-01 -3.608432656878025613e-01 -1.237243884319821387e-02 4.740541117331209878e-03 4.555246017887860238e-02 -1.114595714415594768e-01 1.774051976586830254e-02 1.502545774753838881e+00 -1.675897808549621226e-01 3.906040457345210659e-01 -2.953584329318004187e-01 5.346585421088479589e-02 4.564783265094823905e-02 1.113012175951764826e+00 -1.644934478580761805e+00 2.637978788964123300e+00 1.243228034794248593e+00 3.250788630824725800e-01 -4.773884210109978987e+00 9.859181402275801531e+01 -1.146800772509087157e-01 -8.351139767780151324e-01 -3.716481928307855842e+00 0.000000000000000000e+00 0.000000000000000000e+00 0.000000000000000000e+00 -9.079281352201650479e-16 2.365248417170652757e-15 0.000000000000000000e+00 7.370695181208834793e-16 -3.885739331813737191e-15 0.000000000000000000e+00 3.794841734161210741e-16 7.246693176225587361e-15 -3.927916780340705794e-15 0.000000000000000000e+00 0.000000000000000000e+00 0.000000000000000000e+00 0.000000000000000000e+00 9.929974274059522328e-16 -7.958190710949240191e-15 0.000000000000000000e+00 2.609296762143754270e-16 6.045552164955653591e-15 3.794841734161210741e-16 7.246693176225587361e-15 -3.927916780340705794e-15 0.000000000000000000e+00 3.109219941603497520e-15 -9.489158128717120569e-15 0.000000000000000000e+00 -2.877014917961712089e-15 -1.560310546940260714e-14 0.000000000000000000e+00 7.852894064485643708e-16 -6.636910604847659020e-15 3.794841734161210741e-16 7.246693176225587361e-15 -3.927916780340705794e-15 0.000000000000000000e+00 0.000000000000000000e+00 0.000000000000000000e+00 0.000000000000000000e+00 -3.543851715003701607e-15 -6.483655593543875705e-15 0.000000000000000000e+00 -3.071431368571791042e-15 1.284595586268318745e-15 3.794841734161210741e-16 7.246693176225587361e-15 -3.927916780340705794e-15 0.000000000000000000e+00 0.000000000000000000e+00 0.000000000000000000e+00 0.000000000000000000e+00 -2.885035661478928845e-15 -1.488810342797746719e-14 0.000000000000000000e+00 -7.240194791811136820e-15 -1.470448962766155527e-14 -4.140233518719693695e-02 2.623297395124277176e-01 8.666572224350248543e-01 -2.192379692139010405e+00 4.656494529562770768e-01 2.562803282023669027e+00 3.458001794476486257e+00 -1.126312211862559032e+00 -1.184488464660310747e+01 1.619803689596806817e-01 -3.152388818358884848e+00 6.135293510564450159e+00 0.000000000000000000e+00 0.000000000000000000e+00 0.000000000000000000e+00 -1.514080098506194179e-15 9.000175554159561254e-16 0.000000000000000000e+00 9.095179717419261724e-16 3.019352601238637021e-15 0.000000000000000000e+00 1.846614112072034176e-15 1.476046547622785237e-15 2.738530870457846380e-15 0.000000000000000000e+00 0.000000000000000000e+00 0.000000000000000000e+00 0.000000000000000000e+00 -7.277684455153899215e-16 6.050288072009913753e-15 0.000000000000000000e+00 2.095067596856035864e-15 2.669817030960537751e-16 1.846614112072034176e-15 1.476046547622785237e-15 2.738530870457846380e-15 0.000000000000000000e+00 -4.818320658467871636e-15 7.373402314721225867e-15 0.000000000000000000e+00 5.067506544934857455e-15 -2.679276025555470045e-15 0.000000000000000000e+00 1.695006404068808040e-15 3.070679953645661945e-16 1.846614112072034176e-15 1.476046547622785237e-15 2.738530870457846380e-15 0.000000000000000000e+00 0.000000000000000000e+00 0.000000000000000000e+00 0.000000000000000000e+00 -7.520319712952023162e-15 5.504587104417280582e-15 0.000000000000000000e+00 -1.906676338650729468e-15 4.723996853716234604e-15 1.846614112072034176e-15 1.476046547622785237e-15 2.738530870457846380e-15 0.000000000000000000e+00 0.000000000000000000e+00 0.000000000000000000e+00 0.000000000000000000e+00 -1.454939332360334202e-15 1.176688722269525244e-14 0.000000000000000000e+00 -8.131788980698046187e-15 9.164644440412417021e-15
2.999065476232122478e+02 1.380327490180532218e-02 -4.468602096317437350e-02 1.361928877562172853e-02 4.871958813512832637e-03 2.562347254818119202e-01 -1.688177497748283018e-01 2.754726221136593288e-03 3.816211242946985355e-03 3.115588668034507264e-02 2.549650857481973454e-02 -9.805788687649540092e-02 9.088336802286047303e-04 -5.866062428436390891e-02 -2.070439037951677108e-01 -2.130772442301659408e-01 -1.795654989481948460e-01 -1.709207117704030776e-01 1.813350498693429846e-01 -6.126512154828413909e-02 -1.156421614317995616e-01 -9.170989564201684555e-03 3.895735434804369068e-02 -1.391754485139932822e-02 1.640101020135263932e-01 -1.348159754787379982e-01 -1.088902964543911667e+00 4.338753540959029015e-02 -1.189769556708595299e-01 -2.702742328402073513e-01 6.435636064202839013e-02 -1.382836689950281972e-01 -4.111060083835739731e-01 -1.182413345790755271e-02 4.131703379324676295e-03 5.131548676713471036e-02 -1.209439871753168749e-01 1.487460289082540889e-02 1.691473710060179769e+00 -1.612676273990671094e-01 4.066782835138881835e-01 -3.074836574224458774e-01 -1.007293520861068242e-02 1.130000838431845928e-01 1.219719441742580734e+00 -1.552685440273403383e+00 2.404387120721582782e+00 1.141725765803749182e+00 5.249750045687604505e-01 -4.560545496569481827e+00 9.358428722264132205e+01 -9.027634971506864892e-02 -7.809362462289552997e-01 -4.022712258384948392e+00 0.000000000000000000e+00 0.000000000000000000e+00 0.000000000000000000e+00 -1.621956472248751032e-15 3.154224366855401844e-15 0.000000000000000000e+00 2.384337635077887135e-16 -4.451521796105160085e-15 0.000000000000000000e+00 3.524597738477229090e-16 7.790032980134662844e-15 -4.310141085178732278e-15 0.000000000000000000e+00 0.000000000000000000e+00 0.000000000000000000e+00 0.000000000000000000e+00 7.189671988902664082e-16 -6.850274531811174896e-15 0.000000000000000000e+00 8.056965515701174742e-16 6.058263894284997820e-15 3.524597738477229090e-16 7.790032980134662844e-15 -4.310141085178732278e-15 0.000000000000000000e+00 8.866726948683057631e-16 -8.864124713418773376e-15 0.000000000000000000e+00 -3.249220886250377479e-15 -1.576245931555544670e-14 0.000000000000000000e+00 6.538897664244939654e-16 -6.934295433893005615e-15 3.524597738477229090e-16 7.790032980134662844e-15 -4.310141085178732278e-15 0.000000000000000000e+00 0.000000000000000000e+00 0.000000000000000000e+00 0.000000000000000000e+00 -3.912708583569305976e-15 -6.578366108461152024e-15 0.000000000000000000e+00 -5.614226330849945154e-15 2.749794158403538897e-15 3.524597738477229090e-16 7.790032980134662844e-15 -4.310141085178732278e-15 0.000000000000000000e+00 0.000000000000000000e+00 0.000000000000000000e+00 0.000000000000000000e+00 -1.555363832114519169e-15 -1.503485091400123108e-14 0.000000000000000000e+00 -6.608297644252272025e-15 -1.325178752970394245e-14 -1.311384743727226319e-02 2.572696665263405347e-01 9.432498830360849240e-01 -2.120653664689253315e+00 1.990218182589841012e-01 2.428948212623295078e+00 3.092642217861995224e+00 -4.533627873212977000e-01 -1.661029994284980660e+01 1.529834223416581991e-02 -3.824680223749579611e+00 6.204816894509458614e+00 0.000000000000000000e+00 0.000000000000000000e+00 0.000000000000000000e+00 -1.413841806899224818e-15 1.775431033172838350e-15 0.000000000000000000e+00 1.848960502591671042e-15 4.244489129820848731e-15 0.000000000000000000e+00 2.430310317517912058e-15 1.024630153135416434e-15 3.732869618855004211e-15 0.000000000000000000e+00 0.000000000000000000e+00 0.000000000000000000e+00 0.000000000000000000e+00 -2.810473932598610742e-16 4.887104798170062000e-15 0.000000000000000000e+00 2.317300760627672431e-15 -1.753538917449068073e-15 2.430310317517912058e-15 1.024630153135416434e-15 3.732869618855004211e-15 0.000000000000000000e+00 -5.321948634022400848e-15 8.917128718044141698e-15 0.000000000000000000e+00 5.495783896059524234e-15 -4.469410923256335792e-15 0.000000000000000000e+00 2.390316205215283741e-15 -1.391472150700976786e-15 2.430310317517912058e-15 1.024630153135416434e-15 3.732869618855004211e-15 0.000000000000000000e+00 0.000000000000000000e+00 0.000000000000000000e+00 0.000000000000000000e+00 -7.604769937193368511e-15 4.682923564510387293e-15 0.000000000000000000e+00 -8.801850285708613420e-16 4.409379683223571159e-15 2.430310317517912058e-15 1.024630153135416434e-15 3.732869618855004211e-15 0.000000000000000000e+00 0.000000000000000000e+00 0.000000000000000000e+00 0.000000000000000000e+00 -2.040942287473974266e-15 1.154893411992014809e-14 0.000000000000000000e+00 -9.904154034613396509e-15 8.705354266910552644e-15
2.999349956519316152e+02 1.327570436561121593e-02 -5.128422041460661135e-02 5.488733893068848541e-02 1.386739714051269008e-02 3.524349102385078147e-01 -1.673771396398300582e-01 -4.089467734733199383e-02 -1.089549466108505511e-02 3.520986192858076118e-03 4.795147300213745828e-02 -7.438342629451415167e-02 6.384594311216763678e-03 -9.349217471687301662e-02 -2.699897431104698597e-01 -1.858613606142617003e-01 -2.211877452351137530e-01 -1.813740504884311655e-01 1.854891210513215372e-01 -5.390174632147831657e-02 -1.399008863945246928e-01 -4.678706944637454554e-03 4.229876839541618638e-02 -4.030408653144171294e-02 1.883267417844444458e-01 -1.278602258367457223e-01 -1.148065739810574248e+00 4.549111941400575676e-02 -8.290803459577923695e-02 -2.811359049791597453e-01 7.101351212114222211e-02 -1.462194918567869262e-01 -4.377384376462840621e-01 -1.089046405876899562e-02 3.263362693005897146e-03 5.387571626005694531e-02 -1.243333337510131864e-01 1.186875189977993836e-02 1.791545945837911713e+00 -1.497788142021379276e-01 4.024421425173533295e-01 -3.168182480629656572e-01 -7.147613498545486721e-02 1.723098689585532139e-01 1.249741390708362543e+00 -1.406486917124413649e+00 2.077252568437362168e+00 1.002363251173248981e+00 7.104201932636974304e-01 -4.168319225858650334e+00 8.535055777522430276e+01 -5.309418181909416473e-02 -6.946023260352973683e-01 -4.165540830843013076e+00 0.000000000000000000e+00 0.000000000000000000e+00 0.000000000000000000e+00 -2.293858383057826087e-15 4.074221430109067815e-15 0.000000000000000000e+00 -8.242213178766015745e-17 -4.832628110768853167e-15 0.000000000000000000e+00 3.494350403917403580e-16 7.998611404807617893e-15 -4.309028884372648044e-15 0.000000000000000000e+00 0.000000000000000000e+00 0.000000000000000000e+00 0.000000000000000000e+00 1.780191085541338188e-16 -5.384000306825132124e-15 0.000000000000000000e+00 1.360784058633147074e-15 5.880498588326859410e-15 3.494350403917403580e-16 7.998611404807617893e-15 -4.309028884372648044e-15 0.000000000000000000e+00 -1.535153921836237635e-15 -7.883472255305272482e-15 0.000000000000000000e+00 -3.756048557449705215e-15 -1.526682996587377984e-14 0.000000000000000000e+00 4.159709699534317220e-16 -6.681726967065207442e-15 3.494350403917403580e-16 7.998611404807617893e-15 -4.309028884372648044e-15 0.000000000000000000e+00 0.000000000000000000e+00 0.000000000000000000e+00 0.000000000000000000e+00 -4.383377284998734214e-15 -6.253405609379665801e-15 0.000000000000000000e+00 -8.135202153740601457e-15 3.983412201810535346e-15 3.494350403917403580e-16 7.998611404807617893e-15 -4.309028884372648044e-15 0.000000000000000000e+00 0.000000000000000000e+00 0.000000000000000000e+00 0.000000000000000000e+00 -6.535293013786999144e-17 -1.437288879451937955e-14 0.000000000000000000e+00 -5.876177185709262945e-15 -1.105549717411093443e-14 8.545995559030170052e-03 2.344191113234980473e-01 9.633888873421337928e-01 -1.979900354144990438e+00 -9.526957630915015851e-02 2.207994850643022033e+00 2.620826918999099142e+00 2.107871171612445971e-01 -2.122767448466029805e+01 -8.139521141953186267e-02 -4.282708290098965698e+00 6.000928603545458984e+00 0.000000000000000000e+00 0.000000000000000000e+00 0.000000000000000000e+00 -1.194765512051934013e-15 2.728901387225822691e-15 0.000000000000000000e+00 2.755230957631878443e-15 5.136183041265012629e-15 0.000000000000000000e+00 2.894148838893892483e-15 4.362875275889225085e-16 4.484429774948255676e-15 0.000000000000000000e+00 0.000000000000000000e+00 0.000000000000000000e+00 0.000000000000000000e+00 1.355680875926773772e-16 3.267329890802517472e-15 0.000000000000000000e+00 2.515034313712534608e-15 -3.330605238414471984e-15 2.894148838893892483e-15 4.362875275889225085e-16 4.484429774948255676e-15 0.000000000000000000e+00 -5.683231645869864648e-15 9.774046869472792529e-15 0.000000000000000000e+00 5.722481744072869461e-15 -6.157031962868245619e-15 0.000000000000000000e+00 3.126777870623451255e-15 -3.224940546411466811e-15 2.894148838893892483e-15 4.362875275889225085e-16 4.484429774948255676e-15 0.000000000000000000e+00 0.000000000000000000e+00 0.000000000000000000e+00 0.000000000000000000e+00 -7.312584756761277246e-15 3.507105142130117709e-15 0.000000000000000000e+00 1.058360575004826152e-16 3.928529034450956888e-15 2.894148838893892483e-15 4.362875275889225085e-16 4.484429774948255676e-15 0.000000000000000000e+00 0.000000000000000000e+00 0.000000000000000000e+00 0.000000000000000000e+00 -2.450081442488359473e-15 1.097440388746712254e-14 0.000000000000000000e+00 -1.123580316148918272e-14 7.826667742978478695e-15
